# xmcd
#
# Track frame offsets: 
#        150
#        11524
#        32224
#        48075
#        59902
#        80439
#        96069
#        112583
#        127024
#        147333
#        166816
#
# Disc length: 2448 seconds
#
# Revision: 0
# Processed by: cddbd v1.5.2PL0 Copyright (c) Steve Scherf et al.
# Submitted via: ExactAudioCopy v0.95b4
#
DISCID=8a098e0b
DTITLE=Chris Ledrew - Stronger Man
DYEAR=2006
DGENRE=Country
TTITLE0=Slave No More
TTITLE1=Growing Pains
TTITLE2=Stronger Man
TTITLE3=Known To Break Some Hearts
TTITLE4=Stones Throw Apart
TTITLE5=Do I Make Myself Clear?
TTITLE6=Am I In Love With You
TTITLE7=More Than Likely
TTITLE8=Right Down The Line
TTITLE9=Heartbreak Interstate
TTITLE10=If This Was The Past
EXTD=
EXTT0=
EXTT1=
EXTT2=
EXTT3=
EXTT4=
EXTT5=
EXTT6=
EXTT7=
EXTT8=
EXTT9=
EXTT10=
PLAYORDER=
